<?xml version="1.0" encoding="UTF-8" standalone="no"?>
<!-- Created with Inkscape (http://www.inkscape.org/) -->

<svg
   width="500"
   height="500"
   viewBox="0 0 132.29166 132.29167"
   version="1.1"
   id="svg1"
   inkscape:version="1.3 (0e150ed6c4, 2023-07-21)"
   sodipodi:docname="Logosimbolo_iTalentoFinal.svg"
   inkscape:export-filename="Logosimbolo_iTalentoFinal.png"
   inkscape:export-xdpi="96"
   inkscape:export-ydpi="96"
   xmlns:inkscape="http://www.inkscape.org/namespaces/inkscape"
   xmlns:sodipodi="http://sodipodi.sourceforge.net/DTD/sodipodi-0.dtd"
   xmlns="http://www.w3.org/2000/svg"
   xmlns:svg="http://www.w3.org/2000/svg">
  <sodipodi:namedview
     id="namedview1"
     pagecolor="#5b5b5b"
     bordercolor="#ffffff"
     borderopacity="0.66666667"
     inkscape:showpageshadow="false"
     inkscape:pageopacity="0"
     inkscape:pagecheckerboard="false"
     inkscape:deskcolor="#505050"
     inkscape:document-units="px"
     inkscape:zoom="1.3843855"
     inkscape:cx="242.34579"
     inkscape:cy="268.35011"
     inkscape:window-width="1920"
     inkscape:window-height="991"
     inkscape:window-x="-9"
     inkscape:window-y="-9"
     inkscape:window-maximized="1"
     inkscape:current-layer="layer1"
     showguides="true"
     inkscape:lockguides="false"
     showgrid="true"
     showborder="true"
     labelstyle="default"
     inkscape:clip-to-page="false">
    <inkscape:grid
       id="grid7"
       units="px"
       originx="0"
       originy="0"
       spacingx="1.3229167"
       spacingy="1.3229167"
       empcolor="#0099e5"
       empopacity="0.30196078"
       color="#0099e5"
       opacity="0.14901961"
       empspacing="5"
       dotted="false"
       gridanglex="30"
       gridanglez="30"
       visible="true" />
    <sodipodi:guide
       position="0,132.29166"
       orientation="0,500"
       id="guide7"
       inkscape:locked="false" />
    <sodipodi:guide
       position="132.29166,132.29166"
       orientation="500,0"
       id="guide8"
       inkscape:locked="false" />
    <sodipodi:guide
       position="132.29166,0"
       orientation="0,-500"
       id="guide9"
       inkscape:locked="false" />
    <sodipodi:guide
       position="0,0"
       orientation="-500,0"
       id="guide10"
       inkscape:locked="false" />
  </sodipodi:namedview>
  <defs
     id="defs1" />
  <g
     inkscape:label="Capa 1"
     inkscape:groupmode="layer"
     id="layer1">
    <path
       id="rect10"
       style="fill:#87ceeb;fill-opacity:1;stroke-width:0.26458333;stroke-linecap:round;paint-order:stroke fill markers;stroke:none;stroke-opacity:1;stroke-dasharray:none"
       d="M 13.229166 13.229166 C 5.9002158 13.229166 0 19.129382 0 26.458333 L 0 63.499999 C 15.076647 63.521349 27.256669 63.505299 42.333333 63.499999 L 7.9374999 50.270833 L 68.791666 50.270833 L 85.989582 55.562499 C 85.989582 55.562499 107.15625 56.885416 108.47917 56.885416 C 111.12499 56.885416 125.97836 63.447806 125.97836 63.447806 C 131.90678 63.480976 132.29166 63.499999 132.29166 63.499999 L 132.29166 26.458333 C 132.29166 19.129382 126.39145 13.229166 119.0625 13.229166 L 13.229166 13.229166 z M 87.312499 56.885416 C 87.312499 56.885416 95.249996 60.854167 100.54167 62.177083 C 105.83332 63.499998 123.03125 63.499999 123.03125 63.499999 C 123.03125 63.499999 109.80208 58.208333 107.15625 58.208333 C 105.83333 58.208333 87.312499 56.885416 87.312499 56.885416 z M 21.332031 64.492187 C 9.2604273 64.492187 1.3229166 64.822916 1.3229166 64.822916 C 1.3229167 64.822916 46.302079 65.61824 46.302083 66.145832 C 46.302087 66.673425 1.3229166 67.468749 1.3229166 67.468749 C 1.3229166 67.468749 33.072946 68.791663 66.145832 66.145832 C 49.609389 64.822917 33.403635 64.492187 21.332031 64.492187 z M 28.268558 68.752392 C 18.95018 68.739304 7.7056098 68.739317 0 68.791666 L 0 105.83333 C 1.2533172e-15 113.16228 5.9002158 119.0625 13.229166 119.0625 L 119.0625 119.0625 C 126.39145 119.0625 132.29166 113.16228 132.29166 105.83333 L 132.29166 68.791666 L 119.0625 68.791666 C 70.397201 71.365694 80.060954 76.729166 26.458333 76.729166 L 44.979166 68.791666 C 44.979166 68.791666 37.586936 68.765479 28.268558 68.752392 z " />
  </g>
</svg>
